HIERARCHY
ROOT Hips
{
	OFFSET 0.000000 100.481300 0.000000
	CHANNELS 6 Xposition Yposition Zposition Xrotation Yrotation Zrotation
	JOINT Spine
	{
		OFFSET -0.279200 12.230698 -2.892100
		CHANNELS 3 Xrotation Yrotation Zrotation
		JOINT Spine1
		{
			OFFSET -0.325700 14.269203 -3.374200
			CHANNELS 3 Xrotation Yrotation Zrotation
			JOINT Spine2
			{
				OFFSET -0.372300 16.307602 -0.352600
				CHANNELS 3 Xrotation Yrotation Zrotation
				JOINT Neck
				{
					OFFSET -0.418800 17.814194 8.416900
					CHANNELS 3 Xrotation Yrotation Zrotation
					JOINT Head
					{
						OFFSET 0.000000 7.031097 3.806800
						CHANNELS 3 Xrotation Yrotation Zrotation
						JOINT HeadTop_End
						{
							OFFSET 0.000000 24.646606 12.978600
							CHANNELS 3 Xrotation Yrotation Zrotation
							End Site
							{
								OFFSET 0.000000 27.854965 0.000000
							}
						}
					}
				}
				JOINT LeftShoulder
				{
					OFFSET 16.952999 14.495407 -7.737500
					CHANNELS 3 Xrotation Yrotation Zrotation
					JOINT LeftArm
					{
						OFFSET 9.308998 -2.777710 0.208600
						CHANNELS 3 Xrotation Yrotation Zrotation
						JOINT LeftForeArm
						{
							OFFSET 29.972298 0.000000 0.000000
							CHANNELS 3 Xrotation Yrotation Zrotation
							JOINT LeftHand
							{
								OFFSET 26.026505 0.000000 0.000000
								CHANNELS 3 Xrotation Yrotation Zrotation
								JOINT LeftHandThumb1
								{
									OFFSET 12.240501 -7.147949 9.207150
									CHANNELS 3 Xrotation Yrotation Zrotation
									JOINT LeftHandThumb2
									{
										OFFSET 4.138618 -2.389435 2.389433
										CHANNELS 3 Xrotation Yrotation Zrotation
										JOINT LeftHandThumb3
										{
											OFFSET 2.726913 -1.574387 1.574386
											CHANNELS 3 Xrotation Yrotation Zrotation
											JOINT LeftHandThumb4
											{
												OFFSET 3.941010 -2.275345 2.275342
												CHANNELS 3 Xrotation Yrotation Zrotation
												End Site
												{
													OFFSET -0.005798 5.087799 0.009903
												}
											}
										}
									}
								}
								JOINT LeftHandIndex1
								{
									OFFSET 24.424698 -1.985611 5.953459
									CHANNELS 3 Xrotation Yrotation Zrotation
									JOINT LeftHandIndex2
									{
										OFFSET 6.426697 0.000000 0.000000
										CHANNELS 3 Xrotation Yrotation Zrotation
										JOINT LeftHandIndex3
										{
											OFFSET 5.337898 0.000000 0.000000
											CHANNELS 3 Xrotation Yrotation Zrotation
											JOINT LeftHandIndex4
											{
												OFFSET 4.409401 0.000000 0.000000
												CHANNELS 3 Xrotation Yrotation Zrotation
												End Site
												{
													OFFSET 0.000000 4.409363 0.014373
												}
											}
										}
									}
								}
								JOINT LeftHandMiddle1
								{
									OFFSET 23.810104 0.000000 0.000000
									CHANNELS 3 Xrotation Yrotation Zrotation
									JOINT LeftHandMiddle2
									{
										OFFSET 7.176498 0.000000 0.000000
										CHANNELS 3 Xrotation Yrotation Zrotation
										JOINT LeftHandMiddle3
										{
											OFFSET 6.774902 0.000000 0.000000
											CHANNELS 3 Xrotation Yrotation Zrotation
											JOINT LeftHandMiddle4
											{
												OFFSET 5.403328 0.000000 0.000000
												CHANNELS 3 Xrotation Yrotation Zrotation
												End Site
												{
													OFFSET -0.027702 5.403244 0.017414
												}
											}
										}
									}
								}
								JOINT LeftHandRing1
								{
									OFFSET 22.908401 -0.839279 -6.020567
									CHANNELS 3 Xrotation Yrotation Zrotation
									JOINT LeftHandRing2
									{
										OFFSET 6.337502 0.000000 0.000000
										CHANNELS 3 Xrotation Yrotation Zrotation
										JOINT LeftHandRing3
										{
											OFFSET 5.779297 0.000000 0.000000
											CHANNELS 3 Xrotation Yrotation Zrotation
											JOINT LeftHandRing4
											{
												OFFSET 4.965698 0.000000 0.000000
												CHANNELS 3 Xrotation Yrotation Zrotation
												End Site
												{
													OFFSET 0.000000 4.965668 0.016186
												}
											}
										}
									}
								}
								JOINT LeftHandPinky1
								{
									OFFSET 20.037003 -1.530319 -10.950146
									CHANNELS 3 Xrotation Yrotation Zrotation
									JOINT LeftHandPinky2
									{
										OFFSET 5.254700 0.000000 0.000000
										CHANNELS 3 Xrotation Yrotation Zrotation
										JOINT LeftHandPinky3
										{
											OFFSET 4.810204 0.000000 0.000000
											CHANNELS 3 Xrotation Yrotation Zrotation
											JOINT LeftHandPinky4
											{
												OFFSET 3.647202 0.000000 0.000000
												CHANNELS 3 Xrotation Yrotation Zrotation
												End Site
												{
													OFFSET 0.000000 3.647186 0.011889
												}
											}
										}
									}
								}
							}
						}
					}
				}
				JOINT RightShoulder
				{
					OFFSET -15.141001 14.495407 -7.737500
					CHANNELS 3 Xrotation Yrotation Zrotation
					JOINT RightArm
					{
						OFFSET -9.308998 -2.777710 0.208500
						CHANNELS 3 Xrotation Yrotation Zrotation
						JOINT RightForeArm
						{
							OFFSET -29.972300 0.000000 0.000000
							CHANNELS 3 Xrotation Yrotation Zrotation
							JOINT RightHand
							{
								OFFSET -26.026505 0.000000 0.000000
								CHANNELS 3 Xrotation Yrotation Zrotation
								JOINT RightHandThumb1
								{
									OFFSET -12.240601 -7.148026 9.207092
									CHANNELS 3 Xrotation Yrotation Zrotation
									JOINT RightHandThumb2
									{
										OFFSET -4.138618 -2.389435 2.389433
										CHANNELS 3 Xrotation Yrotation Zrotation
										JOINT RightHandThumb3
										{
											OFFSET -2.726974 -1.574417 1.574421
											CHANNELS 3 Xrotation Yrotation Zrotation
											JOINT RightHandThumb4
											{
												OFFSET -3.941010 -2.275345 2.275343
												CHANNELS 3 Xrotation Yrotation Zrotation
												End Site
												{
													OFFSET 0.005814 5.087799 0.009927
												}
											}
										}
									}
								}
								JOINT RightHandIndex1
								{
									OFFSET -24.424698 -1.985657 5.953444
									CHANNELS 3 Xrotation Yrotation Zrotation
									JOINT RightHandIndex2
									{
										OFFSET -6.426697 0.000000 0.000000
										CHANNELS 3 Xrotation Yrotation Zrotation
										JOINT RightHandIndex3
										{
											OFFSET -5.337898 0.000000 0.000000
											CHANNELS 3 Xrotation Yrotation Zrotation
											JOINT RightHandIndex4
											{
												OFFSET -4.409401 0.000000 0.000000
												CHANNELS 3 Xrotation Yrotation Zrotation
												End Site
												{
													OFFSET 0.000000 4.409363 0.014408
												}
											}
										}
									}
								}
								JOINT RightHandMiddle1
								{
									OFFSET -23.810097 0.000000 0.000000
									CHANNELS 3 Xrotation Yrotation Zrotation
									JOINT RightHandMiddle2
									{
										OFFSET -7.176498 0.000000 0.000000
										CHANNELS 3 Xrotation Yrotation Zrotation
										JOINT RightHandMiddle3
										{
											OFFSET -6.774902 0.000000 0.000000
											CHANNELS 3 Xrotation Yrotation Zrotation
											JOINT RightHandMiddle4
											{
												OFFSET -5.403328 0.000000 0.000000
												CHANNELS 3 Xrotation Yrotation Zrotation
												End Site
												{
													OFFSET 0.027702 5.403244 0.017457
												}
											}
										}
									}
								}
								JOINT RightHandRing1
								{
									OFFSET -22.908302 -0.839325 -6.020576
									CHANNELS 3 Xrotation Yrotation Zrotation
									JOINT RightHandRing2
									{
										OFFSET -6.337502 0.000000 0.000000
										CHANNELS 3 Xrotation Yrotation Zrotation
										JOINT RightHandRing3
										{
											OFFSET -5.779297 0.000000 0.000000
											CHANNELS 3 Xrotation Yrotation Zrotation
											JOINT RightHandRing4
											{
												OFFSET -4.965698 0.000000 0.000000
												CHANNELS 3 Xrotation Yrotation Zrotation
												End Site
												{
													OFFSET 0.000000 4.965668 0.016226
												}
											}
										}
									}
								}
								JOINT RightHandPinky1
								{
									OFFSET -20.037003 -1.530334 -10.950259
									CHANNELS 3 Xrotation Yrotation Zrotation
									JOINT RightHandPinky2
									{
										OFFSET -5.254700 0.000000 0.000000
										CHANNELS 3 Xrotation Yrotation Zrotation
										JOINT RightHandPinky3
										{
											OFFSET -4.810204 0.000000 0.000000
											CHANNELS 3 Xrotation Yrotation Zrotation
											JOINT RightHandPinky4
											{
												OFFSET -3.647202 0.000000 0.000000
												CHANNELS 3 Xrotation Yrotation Zrotation
												End Site
												{
													OFFSET 0.000000 3.647186 0.011917
												}
											}
										}
									}
								}
							}
						}
					}
				}
			}
		}
	}
	JOINT LeftUpLeg
	{
		OFFSET 15.427100 -6.655098 0.678600
		CHANNELS 3 Xrotation Yrotation Zrotation
		JOINT LeftLeg
		{
			OFFSET 4.081073 -39.591068 13.024000
			CHANNELS 3 Xrotation Yrotation Zrotation
			JOINT LeftFoot
			{
				OFFSET -4.081074 -37.707932 -15.979700
				CHANNELS 3 Xrotation Yrotation Zrotation
				JOINT LeftToeBase
				{
					OFFSET 5.346399 -15.068900 20.645000
					CHANNELS 3 Xrotation Yrotation Zrotation
					JOINT LeftToe_End
					{
						OFFSET 2.754700 0.931300 11.300900
						CHANNELS 3 Xrotation Yrotation Zrotation
						End Site
						{
							OFFSET 0.000000 11.669021 0.000000
						}
					}
				}
			}
		}
	}
	JOINT RightUpLeg
	{
		OFFSET -15.569500 -6.655098 0.678600
		CHANNELS 3 Xrotation Yrotation Zrotation
		JOINT RightLeg
		{
			OFFSET -4.081825 -39.591045 13.023800
			CHANNELS 3 Xrotation Yrotation Zrotation
			JOINT RightFoot
			{
				OFFSET 4.081824 -37.707954 -15.979600
				CHANNELS 3 Xrotation Yrotation Zrotation
				JOINT RightToeBase
				{
					OFFSET -5.346400 -15.068900 20.645000
					CHANNELS 3 Xrotation Yrotation Zrotation
					JOINT RightToe_End
					{
						OFFSET -2.754700 0.931300 11.300900
						CHANNELS 3 Xrotation Yrotation Zrotation
						End Site
						{
							OFFSET 0.000000 11.669021 0.000000
						}
					}
				}
			}
		}
	}
}
MOTION
Frames: 5
Frame Time: 0.033333
-0.042294 30.062355 7.764613 11.525972 -17.894056 4.169349 11.815601 3.658118 -0.634623 23.641001 0.536233 -1.502559 23.641006 0.536233 -1.502555 -37.301248 4.925165 -8.391644 -11.428491 -2.249695 2.801257 0.000003 0.000000 -0.000000 3.190917 -16.628837 14.029690 -54.034470 -19.488072 -15.387026 0.416561 -77.420440 0.426756 27.109222 20.721833 41.158119 -11.634478 -15.293398 -3.534508 11.750058 -4.999185 3.403908 0.000005 -0.000005 -0.000008 0.000000 -0.000002 -0.000000 -6.541480 0.723427 -14.399941 0.098946 0.402073 -21.679755 0.000000 -0.000001 -0.000001 -0.000000 0.000001 0.000000 -0.742174 -0.609319 -9.608130 -0.369854 -1.797184 -22.566055 -0.000001 0.000002 -0.000001 0.000000 0.000000 0.000000 0.164567 3.576631 -17.780487 -0.154272 -1.253489 -14.869539 0.000000 0.000003 0.000001 0.000000 -0.000001 0.000000 4.414986 9.935904 -25.070658 -0.068529 -1.155911 -9.633349 -0.000000 0.000000 0.000000 -0.000000 -0.000000 -0.000000 -12.414927 28.262674 -17.930539 -42.316997 9.472355 15.970143 0.348334 75.700462 -0.391528 24.172847 -3.583614 -15.912290 -28.442484 -5.792102 -4.144733 7.708084 3.710889 -3.208349 0.000007 -0.000017 -0.000016 0.000001 -0.000000 0.000001 -7.998537 0.750817 12.846671 0.271427 -1.025818 26.726078 -0.000002 0.000001 0.000001 -0.000001 -0.000001 0.000002 -1.646872 -1.245454 11.115899 -0.371578 1.557328 26.056970 -0.000002 -0.000009 0.000001 -0.000000 0.000002 -0.000001 2.349692 -9.096137 10.860920 -0.767677 2.714910 26.023904 0.000000 -0.000000 -0.000002 0.000000 0.000000 0.000000 6.306064 -7.570270 20.179792 -0.694410 3.715560 21.816483 -0.000000 0.000000 -0.000001 -0.000001 0.000000 -0.000001 -64.201715 -61.125405 67.092108 100.812656 -31.411825 -23.780805 -16.425217 -13.895920 -39.485105 -0.479572 2.415310 -0.990977 -0.000000 0.000000 0.000000 -51.096584 33.068183 -145.233318 57.280914 48.839356 78.546458 53.600890 35.061758 -4.700720 -22.704806 -3.030362 0.087006 -0.000000 -0.000000 0.000000 
-0.083812 30.098534 7.732718 11.593975 -17.799985 4.258129 11.807661 3.647950 -0.636260 23.625551 0.483663 -1.524462 23.625561 0.483660 -1.524460 -37.272120 4.860489 -8.445938 -11.482819 -2.375824 2.933651 0.000001 0.000000 -0.000000 3.150053 -16.706730 13.962166 -53.789399 -19.467651 -15.150838 0.418681 -77.466735 0.429171 26.800819 20.729665 41.382832 -12.243649 -15.700655 -3.524811 12.445720 -5.221649 3.528560 0.000005 0.000000 -0.000008 -0.000002 0.000001 -0.000005 -6.561057 0.510961 -14.063593 0.102706 0.409275 -22.171815 -0.000000 -0.000000 0.000000 0.000000 0.000001 0.000002 -0.722299 -0.581225 -9.388911 -0.386132 -1.835896 -23.079757 -0.000001 0.000001 -0.000001 0.000001 0.000001 0.000000 0.364003 4.170298 -19.149655 -0.153334 -1.249958 -14.826809 -0.000000 0.000001 0.000000 -0.000000 -0.000000 -0.000000 4.579091 10.048335 -25.846312 -0.070572 -1.167342 -9.732876 -0.000000 0.000000 -0.000000 -0.000000 0.000000 -0.000001 -11.878243 28.126475 -17.305546 -42.731487 10.209166 15.119319 0.350929 75.754038 -0.393546 23.990759 -3.640413 -15.775620 -28.371788 -5.962910 -4.191622 7.622591 3.679378 -3.194471 0.000006 -0.000017 -0.000016 -0.000000 0.000001 -0.000001 -8.041319 0.686643 13.439341 0.272681 -1.028047 26.794079 -0.000001 -0.000000 -0.000004 0.000001 -0.000001 -0.000000 -1.635102 -1.375232 11.468383 -0.375540 1.565434 26.202762 -0.000004 -0.000010 -0.000002 0.000000 0.000000 -0.000002 2.400163 -9.144001 11.276448 -0.773896 2.727586 26.154867 -0.000000 -0.000001 -0.000003 0.000000 -0.000000 -0.000005 6.261596 -7.336672 20.325591 -0.713026 3.760972 22.100911 0.000000 0.000000 0.000002 -0.000001 -0.000000 -0.000000 -64.941022 -60.867361 66.268695 100.878404 -31.044566 -23.363314 -16.471095 -14.047886 -39.887253 -0.492697 2.432099 -0.997933 -0.000000 -0.000000 -0.000000 -51.199043 33.033291 -145.391518 57.266796 48.884456 78.622144 53.711344 35.008302 -4.846061 -22.715689 -2.889541 0.078742 -0.000000 -0.000002 -0.000000 
-0.183790 30.172195 7.661024 11.778093 -17.584529 4.406730 11.784855 3.637341 -0.640335 23.579661 0.404611 -1.533168 23.579637 0.404615 -1.533171 -37.298929 4.868587 -8.678905 -11.473260 -2.592223 3.149388 0.000000 0.000000 0.000000 3.061273 -16.793555 13.886160 -53.500967 -19.398571 -14.910388 0.420775 -77.514758 0.431656 26.612167 20.692181 41.260415 -12.461660 -15.652951 -3.395869 12.304747 -5.176957 3.502969 0.000008 0.000001 -0.000008 -0.000000 0.000002 0.000000 -6.575071 0.671570 -14.845765 0.103696 0.411177 -22.298944 0.000000 -0.000001 -0.000001 -0.000000 0.000001 0.000001 -0.743910 -0.459671 -10.002781 -0.394572 -1.855578 -23.341864 -0.000003 0.000001 0.000000 0.000000 -0.000000 0.000000 0.342174 4.051377 -19.657749 -0.153584 -1.250886 -14.838444 0.000001 0.000003 0.000002 -0.000000 0.000002 0.000000 4.549688 10.047300 -25.667410 -0.071044 -1.169986 -9.755865 0.000001 -0.000000 -0.000000 0.000000 -0.000000 -0.000000 -11.326973 27.822236 -16.774414 -43.137323 11.020028 14.440155 0.355298 75.847236 -0.397101 23.811177 -3.668765 -15.673242 -28.188145 -5.930202 -4.029567 7.512802 3.638930 -3.176690 0.000004 -0.000016 -0.000016 -0.000002 0.000001 -0.000001 -8.074085 0.660069 13.845025 0.272681 -1.028051 26.793893 -0.000001 -0.000002 -0.000002 0.000000 0.000000 -0.000001 -1.641171 -1.360262 11.599816 -0.377900 1.570207 26.288336 -0.000003 -0.000008 -0.000002 0.000001 -0.000001 0.000001 2.357932 -9.057365 10.990821 -0.772595 2.724939 26.127623 -0.000000 -0.000000 -0.000003 0.000000 -0.000000 0.000000 6.172816 -7.320304 19.517231 -0.735056 3.813889 22.433212 -0.000000 0.000001 0.000000 -0.000000 0.000000 0.000003 -66.415455 -60.445385 64.796898 100.988991 -30.419723 -22.663797 -16.457957 -14.181231 -40.465982 -0.400888 2.279545 -0.934186 -0.000000 -0.000000 0.000000 -51.484118 32.905324 -145.681378 57.120565 49.001089 78.919988 53.914498 34.869687 -5.168382 -22.707205 -2.856800 0.073219 0.000000 0.000002 0.000000 
-0.349977 30.273201 7.566508 11.996394 -17.319908 4.550141 11.760847 3.624941 -0.640751 23.531402 0.337033 -1.534316 23.531438 0.337025 -1.534307 -37.391720 4.886191 -8.904180 -11.390876 -2.759700 3.203459 -0.000000 0.000000 -0.000000 2.934268 -16.854817 13.834070 -53.202628 -19.318234 -14.796876 0.422961 -77.569181 0.434198 26.543293 20.548190 41.020535 -12.067308 -15.069429 -3.328529 11.889764 -5.044230 3.428619 0.000007 0.000002 -0.000007 0.000001 -0.000001 0.000001 -6.581173 0.675296 -14.950994 0.103432 0.410663 -22.264880 0.000001 -0.000002 -0.000000 0.000001 0.000001 -0.000000 -0.742116 -0.421112 -10.075945 -0.395247 -1.857144 -23.362744 -0.000003 0.000001 -0.000000 0.000001 -0.000000 0.000000 0.357355 4.066260 -20.037642 -0.152481 -1.246721 -14.787844 0.000001 0.000000 0.000002 0.000000 -0.000001 0.000001 4.725898 10.224459 -26.343188 -0.069674 -1.162319 -9.689120 0.000001 -0.000000 -0.000001 -0.000000 -0.000001 -0.000001 -10.768262 27.371592 -16.288582 -43.496113 11.885378 13.893132 0.359047 75.902233 -0.399953 23.490585 -3.625022 -15.673158 -28.438555 -6.022927 -4.185097 7.612341 3.675637 -3.192811 0.000003 -0.000017 -0.000017 0.000000 0.000000 -0.000001 -8.082156 0.678222 13.879329 0.272688 -1.028056 26.794076 -0.000001 0.000000 -0.000001 0.000001 0.000000 -0.000001 -1.657693 -1.294435 11.680712 -0.378970 1.572352 26.327400 -0.000005 -0.000008 -0.000001 -0.000001 0.000001 0.000000 2.349613 -9.052428 10.917382 -0.772276 2.724300 26.120856 -0.000000 -0.000001 -0.000004 -0.000000 -0.000000 -0.000004 6.184410 -7.429826 19.371444 -0.727041 3.794714 22.312768 0.000001 0.000000 0.000001 -0.000001 -0.000000 0.000001 -67.970457 -59.874668 63.274169 101.034139 -29.692663 -21.876664 -16.482259 -14.408701 -41.061359 -0.341425 2.149333 -0.879186 0.000000 -0.000000 0.000000 -51.744140 32.741284 -145.978409 56.979829 49.168862 79.279918 54.121555 34.748847 -5.561497 -22.776681 -2.839012 0.053427 -0.000000 0.000000 0.000000 
-0.605795 30.422897 7.449189 12.344895 -16.875171 4.706996 11.700850 3.605884 -0.628288 23.410079 0.227746 -1.481988 23.410053 0.227750 -1.481990 -37.356016 4.930257 -9.213029 -11.326611 -2.945088 3.263689 0.000000 -0.000000 -0.000000 2.746940 -16.999931 13.723606 -52.747546 -19.147621 -14.691221 0.425376 -77.591420 0.437344 26.434577 20.212092 40.622697 -12.057404 -14.879851 -3.242063 11.583521 -4.945138 3.374674 0.000004 -0.000000 -0.000005 -0.000002 0.000001 0.000000 -6.624059 0.587233 -15.249697 0.104114 0.411953 -22.353691 -0.000001 0.000002 -0.000000 -0.000000 0.000000 0.000000 -0.736605 -0.278622 -10.378605 -0.397623 -1.862628 -23.435807 -0.000002 -0.000000 -0.000001 -0.000001 0.000001 -0.000000 0.465940 4.310507 -20.976725 -0.146904 -1.225443 -14.529125 0.000001 0.000001 0.000001 -0.000000 -0.000001 0.000001 4.946701 10.397752 -27.246470 -0.068334 -1.154794 -9.623659 -0.000000 0.000000 -0.000001 -0.000000 0.000000 -0.000001 -10.201938 26.835540 -15.850103 -43.736741 12.817044 13.492228 0.364729 75.961307 -0.404984 22.953865 -3.569247 -15.665474 -28.351685 -5.788228 -4.049477 7.788351 3.740345 -3.221439 0.000003 -0.000016 -0.000018 -0.000002 -0.000000 -0.000001 -8.092154 0.770174 13.692180 0.269917 -1.023108 26.644172 -0.000000 0.000002 0.000000 -0.000000 -0.000001 -0.000003 -1.676368 -1.217850 11.647397 -0.378833 1.572101 26.322470 -0.000002 -0.000009 -0.000002 0.000002 -0.000001 -0.000001 2.304559 -8.953020 10.708952 -0.772263 2.724247 26.120515 -0.000000 0.000000 0.000000 -0.000001 0.000001 0.000000 6.277558 -7.709024 19.604895 -0.712877 3.760607 22.098662 -0.000000 0.000001 -0.000002 -0.000001 -0.000001 -0.000003 -70.031699 -59.171418 61.318508 101.031018 -28.788397 -20.939540 -16.546989 -14.735920 -41.637298 -0.279354 2.102383 -0.860147 0.000000 -0.000001 0.000000 -52.151411 32.467711 -146.404968 56.740434 49.394337 79.813800 54.562229 34.541206 -6.153490 -23.004774 -2.849919 0.029648 -0.000000 -0.000001 -0.000000 
